<svg width="737" height="108" viewBox="0 0 737 108" fill="none" xmlns="http://www.w3.org/2000/svg">
<path d="M0 98V8.39999H37.12C46.08 8.39999 53.8027 10.0213 60.288 13.264C66.7733 16.5067 71.7653 21.328 75.264 27.728C78.848 34.0427 80.64 41.8933 80.64 51.28V53.84C80.64 63.3973 78.848 71.4613 75.264 78.032C71.68 84.6027 66.5173 89.5947 59.776 93.008C53.0347 96.336 45.056 98 35.84 98H0ZM28.416 74.96H35.2C38.272 74.96 41.0027 74.32 43.392 73.04C45.8667 71.6747 47.8293 69.456 49.28 66.384C50.7307 63.312 51.456 59.1307 51.456 53.84V51.28C51.456 46.3307 50.7733 42.4053 49.408 39.504C48.128 36.6027 46.2933 34.5547 43.904 33.36C41.6 32.08 38.912 31.44 35.84 31.44H28.416V74.96Z" fill="#1F2937"/>
<path d="M88.55 98V30.16H112.486V98H88.55ZM100.582 23.76C96.23 23.76 92.902 22.8213 90.598 20.944C88.294 19.0667 87.142 16.592 87.142 13.52C87.142 10.448 88.294 7.97333 90.598 6.09599C92.902 4.21866 96.23 3.28 100.582 3.28C105.019 3.28 108.347 4.21866 110.566 6.09599C112.87 7.97333 114.022 10.448 114.022 13.52C114.022 16.592 112.87 19.0667 110.566 20.944C108.347 22.8213 105.019 23.76 100.582 23.76Z" fill="#1F2937"/>
<path d="M121.716 98V30.16H143.988V38.608C144.585 36.9013 145.567 35.28 146.932 33.744C148.383 32.1227 150.132 30.8427 152.18 29.904C154.313 28.88 156.66 28.368 159.22 28.368C160.415 28.368 161.524 28.4533 162.548 28.624C163.572 28.7093 164.511 28.9227 165.364 29.264V49.488C164.596 49.1467 163.401 48.8053 161.78 48.464C160.244 48.1227 158.665 47.952 157.044 47.952C154.313 47.952 152.095 48.4213 150.388 49.36C148.767 50.2133 147.572 51.408 146.804 52.944C146.121 54.48 145.78 56.272 145.78 58.32V98H121.716Z" fill="#1F2937"/>
<path d="M202.689 99.792C196.033 99.792 189.974 98.5547 184.513 96.08C179.052 93.52 174.742 89.6373 171.585 84.432C168.428 79.2267 166.849 72.656 166.849 64.72V62.16C166.849 54.736 168.428 48.5493 171.585 43.6C174.742 38.5653 179.052 34.768 184.513 32.208C189.974 29.648 196.033 28.368 202.689 28.368C209.345 28.368 215.361 29.648 220.737 32.208C226.198 34.768 230.508 38.5653 233.665 43.6C236.822 48.5493 238.401 54.736 238.401 62.16V64.72C238.401 72.4 236.822 78.8853 233.665 84.176C230.508 89.3813 226.198 93.3067 220.737 95.952C215.361 98.512 209.345 99.792 202.689 99.792ZM202.689 80.208C204.993 80.208 206.998 79.6533 208.705 78.544C210.412 77.3493 211.692 75.6 212.545 73.296C213.484 70.992 213.953 68.1333 213.953 64.72V62.16C213.953 59.1733 213.484 56.6133 212.545 54.48C211.692 52.3467 210.412 50.7253 208.705 49.616C206.998 48.5067 204.993 47.952 202.689 47.952C200.214 47.952 198.124 48.5067 196.417 49.616C194.796 50.7253 193.516 52.3467 192.577 54.48C191.724 56.6133 191.297 59.1733 191.297 62.16V64.72C191.297 68.1333 191.724 70.992 192.577 73.296C193.516 75.6 194.796 77.3493 196.417 78.544C198.124 79.6533 200.214 80.208 202.689 80.208Z" fill="#1F2937"/>
<path d="M276.861 99.792C269.949 99.792 263.848 98.4267 258.557 95.696C253.266 92.88 249.128 88.8693 246.141 83.664C243.24 78.4587 241.789 72.144 241.789 64.72V62.16C241.789 55.248 243.282 49.2747 246.269 44.24C249.256 39.2053 253.394 35.3227 258.685 32.592C264.061 29.776 270.12 28.368 276.861 28.368C284.626 28.368 290.898 29.648 295.677 32.208C300.541 34.6827 304.168 38.0533 306.557 42.32C309.032 46.5013 310.482 51.1947 310.909 56.4H287.485C287.058 53.4987 286.034 51.3653 284.413 50C282.877 48.6347 280.701 47.952 277.885 47.952C275.581 47.952 273.533 48.5067 271.741 49.616C270.034 50.64 268.669 52.2187 267.645 54.352C266.706 56.4 266.237 59.0027 266.237 62.16V64.72C266.237 68.2187 266.706 71.12 267.645 73.424C268.584 75.728 269.906 77.4347 271.613 78.544C273.32 79.568 275.41 80.08 277.885 80.08C280.36 80.08 282.45 79.44 284.157 78.16C285.864 76.7947 286.973 74.6613 287.485 71.76H310.909C310.482 77.5627 308.946 82.5547 306.301 86.736C303.656 90.9173 299.901 94.16 295.037 96.464C290.258 98.6827 284.2 99.792 276.861 99.792Z" fill="#88BE52"/>
<path d="M316.286 98V8.39999H340.35V37.968C341.289 36.432 342.611 34.9387 344.318 33.488C346.11 32.0373 348.286 30.8427 350.846 29.904C353.491 28.88 356.563 28.368 360.062 28.368C367.742 28.368 373.545 30.5013 377.47 34.768C381.481 38.9493 383.486 45.0507 383.486 53.072V98H359.55V58.32C359.55 54.992 358.825 52.432 357.374 50.64C356.009 48.848 353.705 47.952 350.462 47.952C348.158 47.952 346.238 48.4213 344.702 49.36C343.166 50.2133 342.057 51.408 341.374 52.944C340.691 54.48 340.35 56.272 340.35 58.32V98H316.286Z" fill="#88BE52"/>
<path d="M425.274 99.792C418.191 99.792 411.877 98.512 406.33 95.952C400.869 93.392 396.559 89.552 393.402 84.432C390.33 79.312 388.794 72.8693 388.794 65.104V62.544C388.794 54.9493 390.287 48.6347 393.274 43.6C396.261 38.5653 400.399 34.768 405.69 32.208C411.066 29.648 417.167 28.368 423.994 28.368C435.77 28.368 444.559 31.312 450.362 37.2C456.165 43.0027 459.066 51.536 459.066 62.8V70.224H413.114C413.285 72.8693 413.882 75.088 414.906 76.88C415.93 78.5867 417.295 79.8667 419.002 80.72C420.794 81.488 422.885 81.872 425.274 81.872C428.261 81.872 430.565 81.4027 432.186 80.464C433.893 79.44 435.045 78.16 435.642 76.624H458.17C456.805 84.4747 453.306 90.32 447.674 94.16C442.127 97.9147 434.661 99.792 425.274 99.792ZM424.634 46.288C422.415 46.288 420.453 46.672 418.746 47.44C417.125 48.208 415.845 49.3173 414.906 50.768C413.967 52.2187 413.413 54.0533 413.242 56.272H435.514C435.429 53.968 434.917 52.0907 433.978 50.64C433.039 49.104 431.759 47.9947 430.138 47.312C428.602 46.6293 426.767 46.288 424.634 46.288Z" fill="#88BE52"/>
<path d="M497.431 99.792C490.519 99.792 484.418 98.4267 479.127 95.696C473.836 92.88 469.698 88.8693 466.711 83.664C463.81 78.4587 462.359 72.144 462.359 64.72V62.16C462.359 55.248 463.852 49.2747 466.839 44.24C469.826 39.2053 473.964 35.3227 479.255 32.592C484.631 29.776 490.69 28.368 497.431 28.368C505.196 28.368 511.468 29.648 516.247 32.208C521.111 34.6827 524.738 38.0533 527.127 42.32C529.602 46.5013 531.052 51.1947 531.479 56.4H508.055C507.628 53.4987 506.604 51.3653 504.983 50C503.447 48.6347 501.271 47.952 498.455 47.952C496.151 47.952 494.103 48.5067 492.311 49.616C490.604 50.64 489.239 52.2187 488.215 54.352C487.276 56.4 486.807 59.0027 486.807 62.16V64.72C486.807 68.2187 487.276 71.12 488.215 73.424C489.154 75.728 490.476 77.4347 492.183 78.544C493.89 79.568 495.98 80.08 498.455 80.08C500.93 80.08 503.02 79.44 504.727 78.16C506.434 76.7947 507.543 74.6613 508.055 71.76H531.479C531.052 77.5627 529.516 82.5547 526.871 86.736C524.226 90.9173 520.471 94.16 515.607 96.464C510.828 98.6827 504.77 99.792 497.431 99.792Z" fill="#88BE52"/>
<path d="M536.856 98V8.39999H560.92V52.176L576.792 30.16H603.416L582.424 58.832L604.824 98H577.816L565.912 77.264L560.92 83.92V98H536.856Z" fill="#88BE52"/>
<path d="M724.96 0H640.96C634.342 0 628.96 5.382 628.96 12V96C628.96 102.618 634.342 108 640.96 108H724.96C731.578 108 736.96 102.618 736.96 96V12C736.96 5.382 731.578 0 724.96 0ZM677.362 80.886L654.718 58.242L663.202 49.758L676.558 63.114L702.352 32.16L711.574 39.84L677.362 80.886Z" fill="#88BE52"/>
</svg>
